<svg width="74" height="73" viewBox="0 0 74 73" fill="none" xmlns="http://www.w3.org/2000/svg">
<path d="M31.5918 52.9938L57.5335 27.3469L53.3168 23.2687L31.5918 44.7469L20.5918 33.8719L16.4668 37.95L31.5918 52.9938ZM37.0002 72.75C31.9891 72.75 27.2529 71.7984 22.7918 69.8953C18.3307 67.9922 14.4349 65.3943 11.1043 62.1016C7.77377 58.8089 5.146 54.9573 3.221 50.5469C1.296 46.1365 0.333496 41.4542 0.333496 36.5C0.333496 31.4854 1.296 26.7729 3.221 22.3625C5.146 17.9521 7.77377 14.1156 11.1043 10.8531C14.4349 7.59062 18.3307 5.00781 22.7918 3.10469C27.2529 1.20156 31.9891 0.25 37.0002 0.25C42.0724 0.25 46.8391 1.20156 51.3002 3.10469C55.7613 5.00781 59.6418 7.59062 62.9418 10.8531C66.2418 14.1156 68.8543 17.9521 70.7793 22.3625C72.7043 26.7729 73.6668 31.4854 73.6668 36.5C73.6668 41.4542 72.7043 46.1365 70.7793 50.5469C68.8543 54.9573 66.2418 58.8089 62.9418 62.1016C59.6418 65.3943 55.7613 67.9922 51.3002 69.8953C46.8391 71.7984 42.0724 72.75 37.0002 72.75ZM37.0002 67.3125C45.6779 67.3125 53.0418 64.3068 59.0918 58.2953C65.1418 52.2839 68.1668 45.0187 68.1668 36.5C68.1668 27.9208 65.1418 20.6406 59.0918 14.6594C53.0418 8.67813 45.6779 5.6875 37.0002 5.6875C28.3835 5.6875 21.0349 8.67813 14.9543 14.6594C8.87377 20.6406 5.8335 27.9208 5.8335 36.5C5.8335 45.0187 8.87377 52.2839 14.9543 58.2953C21.0349 64.3068 28.3835 67.3125 37.0002 67.3125Z" fill="#121212"/>
</svg>
