<svg width="74" height="73" viewBox="0 0 74 73" fill="none" xmlns="http://www.w3.org/2000/svg">
<path d="M31.5916 52.9938L57.5333 27.3469L53.3166 23.2687L31.5916 44.7469L20.5916 33.8719L16.4666 37.95L31.5916 52.9938ZM36.9999 72.75C31.9888 72.75 27.2527 71.7984 22.7916 69.8953C18.3305 67.9922 14.4346 65.3943 11.1041 62.1016C7.77353 58.8089 5.14575 54.9573 3.22075 50.5469C1.29575 46.1365 0.333252 41.4542 0.333252 36.5C0.333252 31.4854 1.29575 26.7729 3.22075 22.3625C5.14575 17.9521 7.77353 14.1156 11.1041 10.8531C14.4346 7.59062 18.3305 5.00781 22.7916 3.10469C27.2527 1.20156 31.9888 0.25 36.9999 0.25C42.0721 0.25 46.8388 1.20156 51.2999 3.10469C55.761 5.00781 59.6416 7.59062 62.9416 10.8531C66.2416 14.1156 68.8541 17.9521 70.7791 22.3625C72.7041 26.7729 73.6666 31.4854 73.6666 36.5C73.6666 41.4542 72.7041 46.1365 70.7791 50.5469C68.8541 54.9573 66.2416 58.8089 62.9416 62.1016C59.6416 65.3943 55.761 67.9922 51.2999 69.8953C46.8388 71.7984 42.0721 72.75 36.9999 72.75ZM36.9999 67.3125C45.6777 67.3125 53.0416 64.3068 59.0916 58.2953C65.1416 52.2839 68.1666 45.0187 68.1666 36.5C68.1666 27.9208 65.1416 20.6406 59.0916 14.6594C53.0416 8.67813 45.6777 5.6875 36.9999 5.6875C28.3833 5.6875 21.0346 8.67813 14.9541 14.6594C8.87353 20.6406 5.83325 27.9208 5.83325 36.5C5.83325 45.0187 8.87353 52.2839 14.9541 58.2953C21.0346 64.3068 28.3833 67.3125 36.9999 67.3125Z" fill="white"/>
</svg>
