<svg width="40" height="40" viewBox="0 0 40 40" fill="none" xmlns="http://www.w3.org/2000/svg">
<mask id="mask0_1404_8793" style="mask-type:alpha" maskUnits="userSpaceOnUse" x="0" y="0" width="40" height="40">
<rect width="40" height="40" fill="#D9D9D9"/>
</mask>
<g mask="url(#mask0_1404_8793)">
<path d="M20 28.9721C22.0278 28.9721 23.7385 28.2754 25.1321 26.8821C26.5255 25.4885 27.2221 23.7778 27.2221 21.75C27.2221 19.7036 26.5255 17.9883 25.1321 16.6042C23.7385 15.22 22.0278 14.5279 20 14.5279C17.9537 14.5279 16.2384 15.22 14.8542 16.6042C13.47 17.9883 12.778 19.7036 12.778 21.75C12.778 23.7778 13.47 25.4885 14.8542 26.8821C16.2384 28.2754 17.9537 28.9721 20 28.9721ZM20 26.1946C18.7223 26.1946 17.6621 25.7686 16.8196 24.9167C15.9768 24.0647 15.5555 23.0092 15.5555 21.75C15.5555 20.4722 15.9768 19.4121 16.8196 18.5696C17.6621 17.7268 18.7223 17.3054 20 17.3054C21.2592 17.3054 22.3148 17.7268 23.1667 18.5696C24.0187 19.4121 24.4446 20.4722 24.4446 21.75C24.4446 23.0092 24.0187 24.0647 23.1667 24.9167C22.3148 25.7686 21.2592 26.1946 20 26.1946ZM6.11129 35C5.36129 35 4.71074 34.7246 4.15962 34.1737C3.60879 33.6226 3.33337 32.9721 3.33337 32.2221V11.3054C3.33337 10.574 3.60879 9.9282 4.15962 9.36792C4.71074 8.80792 5.36129 8.52792 6.11129 8.52792H11.9446L15 5H25L28.0555 8.52792H33.8888C34.6205 8.52792 35.2663 8.80792 35.8263 9.36792C36.3866 9.9282 36.6667 10.574 36.6667 11.3054V32.2221C36.6667 32.9721 36.3866 33.6226 35.8263 34.1737C35.2663 34.7246 34.6205 35 33.8888 35H6.11129Z" fill="#121212"/>
</g>
</svg>
