<svg width="283" height="288" viewBox="0 0 283 288" fill="none" xmlns="http://www.w3.org/2000/svg">
<g clip-path="url(#clip0_315_1756)">
<path fill-rule="evenodd" clip-rule="evenodd" d="M81.2243 234.45C75.4253 231.107 73.4002 223.734 76.7194 217.991L112.594 155.996C115.913 150.253 123.306 148.335 129.093 151.707C134.88 155.078 136.917 162.422 133.598 168.166L97.7231 230.16C94.4038 235.903 87.0112 237.821 81.2243 234.45Z" fill="#121212"/>
<path fill-rule="evenodd" clip-rule="evenodd" d="M20.959 129.761C20.9584 123.058 26.3501 117.641 32.9577 117.633L104.578 117.71C111.213 117.714 116.566 123.177 116.539 129.868C116.512 136.56 111.176 142 104.54 141.997L32.9199 141.919C26.2844 141.916 20.9197 136.48 20.9311 129.749L20.959 129.761Z" fill="#121212"/>
<path fill-rule="evenodd" clip-rule="evenodd" d="M81.5152 25.2394C87.3415 21.8912 94.7025 23.8235 98.0188 29.57L133.764 91.6423C137.081 97.3889 135.053 104.742 129.227 108.09C123.4 111.438 116.039 109.506 112.723 103.759L76.9774 41.6872C73.6611 35.9406 75.689 28.5875 81.5152 25.2394Z" fill="#121212"/>
<path fill-rule="evenodd" clip-rule="evenodd" d="M202.29 25.3704C208.089 28.7136 210.114 36.0863 206.795 41.8294L170.92 103.824C167.601 109.567 160.209 111.485 154.422 108.114C148.635 104.743 146.597 97.3979 149.917 91.6547L185.791 29.66C189.111 23.9169 196.503 21.9993 202.29 25.3704Z" fill="#121212"/>
<path fill-rule="evenodd" clip-rule="evenodd" d="M262.592 130.055C262.593 136.758 257.201 142.175 250.593 142.183L178.973 142.106C172.337 142.102 166.985 136.639 167.012 129.947C167.039 123.256 172.375 117.816 179.011 117.819L250.631 117.897C257.266 117.9 262.631 123.336 262.62 130.067L262.592 130.055Z" fill="#121212"/>
<path fill-rule="evenodd" clip-rule="evenodd" d="M202.047 234.591C196.221 237.939 188.86 236.007 185.543 230.261L149.798 168.188C146.481 162.442 148.509 155.089 154.336 151.741C160.162 148.392 167.523 150.325 170.839 156.071L206.585 218.144C209.901 223.89 207.873 231.243 202.047 234.591Z" fill="#121212"/>
</g>
<defs>
<clipPath id="clip0_315_1756">
<rect width="240.048" height="240.048" fill="white" transform="translate(78.7109 -27.6792) rotate(23.1937)"/>
</clipPath>
</defs>
</svg>
