<svg width="58" height="59" viewBox="0 0 58 59" fill="none" xmlns="http://www.w3.org/2000/svg">
<g id="ICON/Mobil/download_file">
<mask id="mask0_802_5219" style="mask-type:alpha" maskUnits="userSpaceOnUse" x="0" y="0" width="58" height="59">
<rect id="Bounding box" y="0.892944" width="58" height="58" fill="#D9D9D9"/>
</mask>
<g mask="url(#mask0_802_5219)">
<path id="download_file" d="M26.5837 27.4762H31.417V37.5658L35.2837 33.6991L38.667 37.1429L33.8337 41.9762L29.0003 46.8095L19.3337 37.1429L22.7774 33.7595L26.5837 37.5658V27.4762ZM14.5003 54.0595C13.1712 54.0595 12.0333 53.5863 11.0868 52.6397C10.1403 51.6932 9.66699 50.5554 9.66699 49.2262V10.5595C9.66699 9.23036 10.1403 8.09252 11.0868 7.14599C12.0333 6.19946 13.1712 5.7262 14.5003 5.7262H33.8337L41.0837 12.9762L48.3337 20.2262V49.2262C48.3337 50.5554 47.8604 51.6932 46.9139 52.6397C45.9673 53.5863 44.8295 54.0595 43.5003 54.0595H14.5003ZM31.417 22.6429V10.5595H14.5003V49.2262H43.5003V22.6429H31.417Z" fill="#121212"/>
</g>
</g>
</svg>
