<svg width="250" height="227" viewBox="0 0 250 227" fill="none" xmlns="http://www.w3.org/2000/svg">
<path fill-rule="evenodd" clip-rule="evenodd" d="M64.2243 217.95C58.4253 214.607 56.4002 207.234 59.7194 201.491L95.594 139.496C98.9133 133.753 106.306 131.836 112.093 135.207C117.88 138.578 119.917 145.923 116.598 151.666L80.7231 213.661C77.4038 219.404 70.0112 221.321 64.2243 217.95Z" fill="white"/>
<path fill-rule="evenodd" clip-rule="evenodd" d="M3.95896 113.723C3.95838 107.02 9.35006 101.603 15.9577 101.595L87.5779 101.672C94.2135 101.676 99.5662 107.139 99.5389 113.83C99.5116 120.522 94.1757 125.962 87.5401 125.959L15.9199 125.881C9.28438 125.878 3.91968 120.442 3.93106 113.711L3.95896 113.723Z" fill="white"/>
<path fill-rule="evenodd" clip-rule="evenodd" d="M64.5152 8.73841C70.3415 5.39024 77.7025 7.32249 81.0188 13.069L116.764 75.1413C120.081 80.8879 118.053 88.241 112.227 91.5891C106.4 94.9373 99.0393 93.005 95.723 87.2585L59.9774 25.1862C56.6611 19.4397 58.689 12.0866 64.5152 8.73841Z" fill="white"/>
<path fill-rule="evenodd" clip-rule="evenodd" d="M185.29 8.86991C191.089 12.2131 193.114 19.5858 189.795 25.3289L153.92 87.3236C150.601 93.0668 143.209 94.9843 137.422 91.6132C131.635 88.2421 129.597 80.8974 132.917 75.1542L168.791 13.1595C172.111 7.41639 179.503 5.49882 185.29 8.86991Z" fill="white"/>
<path fill-rule="evenodd" clip-rule="evenodd" d="M245.594 113.555C245.594 120.258 240.203 125.674 233.595 125.683L161.975 125.605C155.339 125.602 149.987 120.138 150.014 113.447C150.041 106.756 155.377 101.315 162.013 101.319L233.633 101.396C240.268 101.4 245.633 106.835 245.622 113.566L245.594 113.555Z" fill="white"/>
<path fill-rule="evenodd" clip-rule="evenodd" d="M185.045 218.091C179.219 221.439 171.858 219.507 168.541 213.76L132.796 151.688C129.479 145.942 131.507 138.589 137.334 135.24C143.16 131.892 150.521 133.824 153.837 139.571L189.583 201.643C192.899 207.39 190.871 214.743 185.045 218.091Z" fill="white"/>
</svg>
