<svg width="283" height="289" viewBox="0 0 283 289" fill="none" xmlns="http://www.w3.org/2000/svg">
<g clip-path="url(#clip0_315_1758)">
<path fill-rule="evenodd" clip-rule="evenodd" d="M81.2243 262.45C75.4253 259.107 73.4002 251.734 76.7194 245.991L112.594 183.996C115.913 178.253 123.306 176.336 129.093 179.707C134.88 183.078 136.917 190.423 133.598 196.166L97.7231 258.161C94.4038 263.904 87.0112 265.821 81.2243 262.45Z" fill="#F2F2F2"/>
<path fill-rule="evenodd" clip-rule="evenodd" d="M20.959 157.761C20.9584 151.058 26.3501 145.641 32.9577 145.633L104.578 145.71C111.213 145.714 116.566 151.177 116.539 157.868C116.512 164.56 111.176 170 104.54 169.997L32.9199 169.919C26.2844 169.916 20.9197 164.48 20.9311 157.749L20.959 157.761Z" fill="#F2F2F2"/>
<path fill-rule="evenodd" clip-rule="evenodd" d="M81.5152 53.2394C87.3415 49.8912 94.7025 51.8235 98.0188 57.57L133.764 119.642C137.081 125.389 135.053 132.742 129.227 136.09C123.4 139.438 116.039 137.506 112.723 131.759L76.9774 69.6872C73.6611 63.9406 75.689 56.5875 81.5152 53.2394Z" fill="#F2F2F2"/>
<path fill-rule="evenodd" clip-rule="evenodd" d="M202.29 53.3704C208.089 56.7136 210.114 64.0863 206.795 69.8294L170.92 131.824C167.601 137.567 160.209 139.485 154.422 136.114C148.635 132.743 146.597 125.398 149.917 119.655L185.791 57.66C189.111 51.9169 196.503 49.9993 202.29 53.3704Z" fill="#F2F2F2"/>
<path fill-rule="evenodd" clip-rule="evenodd" d="M262.592 158.055C262.593 164.758 257.201 170.174 250.593 170.183L178.973 170.105C172.337 170.102 166.985 164.638 167.012 157.947C167.039 151.256 172.375 145.815 179.011 145.819L250.631 145.896C257.266 145.9 262.631 151.335 262.62 158.066L262.592 158.055Z" fill="#F2F2F2"/>
<path fill-rule="evenodd" clip-rule="evenodd" d="M202.047 262.591C196.221 265.939 188.86 264.007 185.543 258.26L149.798 196.188C146.481 190.442 148.509 183.089 154.336 179.74C160.162 176.392 167.523 178.324 170.839 184.071L206.585 246.143C209.901 251.89 207.873 259.243 202.047 262.591Z" fill="#F2F2F2"/>
</g>
<defs>
<clipPath id="clip0_315_1758">
<rect width="240.048" height="240.048" fill="white" transform="translate(78.7109 0.320801) rotate(23.1937)"/>
</clipPath>
</defs>
</svg>
