<svg width="358" height="88" viewBox="0 0 358 88" fill="none" xmlns="http://www.w3.org/2000/svg">
<path d="M162.184 85.3694C160.854 85.3694 159.523 84.8608 158.51 83.841L142.855 68.1088C140.831 66.0717 140.831 62.7632 142.862 60.7324C144.891 58.6927 148.179 58.6927 150.208 60.7324L165.862 76.462C167.886 78.5011 167.886 81.8097 165.856 83.841C164.841 84.8608 163.513 85.3694 162.184 85.3694Z" fill="#F2F2F2"/>
<path d="M314.787 87.7597C290.968 87.7597 271.586 68.0803 271.586 43.8861C271.586 35.7509 273.792 27.8084 277.969 20.9167C279.46 18.4514 282.653 17.6719 285.113 19.1682C287.559 20.6681 288.342 23.8788 286.85 26.3395C283.661 31.5991 281.979 37.6621 281.979 43.8861C281.979 62.3209 296.692 77.3239 314.787 77.3239C332.883 77.3239 347.609 62.3209 347.609 43.8861C347.609 25.4513 332.882 10.4358 314.787 10.4358C309.5 10.4405 304.458 11.6794 299.799 14.1256C297.251 15.466 294.115 14.4654 292.791 11.913C291.46 9.35958 292.446 6.20692 294.988 4.87013C301.056 1.69002 307.905 0.0046614 314.783 0C338.616 0 358.001 19.6841 358.001 43.8861C358.001 68.0881 338.616 87.7597 314.787 87.7597Z" fill="#F2F2F2"/>
<path d="M141.115 2.52588L104.094 2.52588C101.935 2.52588 100.088 3.84247 99.302 5.71998C99.0199 6.36532 98.8574 7.07385 98.8574 7.82123V80.0025C98.8574 82.8869 101.181 85.2218 104.053 85.2218C106.926 85.2218 109.249 82.8869 109.249 80.0025V12.9643L141.115 12.9643C149.826 12.9643 156.917 20.0807 156.917 28.8359C156.917 37.591 149.826 44.7095 141.115 44.7095H122.919C120.047 44.7095 117.723 47.0438 117.723 49.9282C117.723 52.8126 120.047 55.1469 122.919 55.1469H141.115C155.555 55.1469 167.309 43.3427 167.309 28.8359C167.309 14.3291 155.555 2.52588 141.115 2.52588Z" fill="#F2F2F2"/>
<path d="M250.395 43.4209H229.347C226.479 43.4209 224.15 45.7547 224.15 48.6401C224.15 51.5255 226.479 53.8573 229.347 53.8573H245.197V80.2237C245.197 83.1065 247.521 85.4434 250.394 85.4434C253.268 85.4434 255.591 83.1065 255.591 80.2237V48.6401C255.591 45.7547 253.261 43.4209 250.394 43.4209" fill="#F2F2F2"/>
<path d="M224.689 88C200.86 88 181.478 68.3155 181.478 44.1129C181.478 19.9104 200.859 0.238281 224.689 0.238281C234.071 0.238281 242.998 3.24437 250.508 8.93646C252.795 10.671 253.246 13.9469 251.524 16.2445C249.796 18.5436 246.539 19.0056 244.244 17.2653C238.552 12.9546 231.792 10.6746 224.69 10.6746C206.595 10.6746 191.868 25.6766 191.868 44.1129C191.868 62.5493 206.595 77.5647 224.69 77.5647C226.978 77.5647 229.287 77.3192 231.539 76.835C234.362 76.2072 237.111 78.0257 237.71 80.8458C238.309 83.6644 236.523 86.4349 233.711 87.0388C230.749 87.6779 227.708 88 224.69 88" fill="#F2F2F2"/>
<path d="M42.1623 85.2167C39.2928 85.2167 36.9668 82.8819 36.9668 79.998V48.8309C36.9668 45.9496 39.2928 43.6147 42.1623 43.6147C45.0319 43.6147 47.36 45.9496 47.36 48.8309V79.998C47.36 82.8819 45.0324 85.2167 42.1623 85.2167Z" fill="#F2F2F2"/>
<path d="M53.0177 35.2978C51.5287 35.2978 50.0501 34.6561 49.0238 33.4198C47.1852 31.2004 47.4884 27.9146 49.6927 26.0693L76.327 3.81209C78.5308 1.96721 81.8052 2.26554 83.6412 4.48592C85.4793 6.7006 85.1781 9.98741 82.9723 11.8297L56.3401 34.092C55.3684 34.9011 54.191 35.2978 53.0177 35.2978Z" fill="#F2F2F2"/>
<path d="M31.8443 35.2976C30.6715 35.2976 29.4951 34.9009 28.524 34.0919L1.87315 11.8296C-0.332144 9.99244 -0.633851 6.69994 1.20063 4.48577C3.0346 2.27109 6.31366 1.96706 8.51948 3.81194L35.1703 26.0691C37.374 27.9093 37.6773 31.2003 35.8428 33.4196C34.8144 34.6559 33.3337 35.2976 31.8443 35.2976Z" fill="#F2F2F2"/>
</svg>
