<svg width="134" height="548" viewBox="0 0 134 548" fill="none" xmlns="http://www.w3.org/2000/svg">
<path d="M129.993 299.741C129.993 301.776 129.219 303.813 127.666 305.364L103.71 329.328C100.608 332.426 95.5702 332.426 92.4778 329.317C89.372 326.212 89.372 321.179 92.4778 318.073L116.43 294.11C119.535 291.012 124.573 291.012 127.666 294.119C129.219 295.674 129.993 297.706 129.993 299.741Z" fill="#F2F2F2"/>
<path d="M133.634 66.1478C133.634 102.608 103.668 132.277 66.8265 132.277C54.4388 132.277 42.3446 128.901 31.8505 122.506C28.0964 120.224 26.9095 115.336 29.1879 111.571C31.4719 107.827 36.3609 106.629 40.1079 108.913C48.1169 113.793 57.349 116.369 66.8265 116.369C94.8977 116.369 117.743 93.8466 117.743 66.1478C117.743 38.449 94.8977 15.9062 66.8265 15.9062C38.7553 15.9062 15.8909 38.4506 15.8909 66.1478C15.898 74.2413 17.7845 81.9599 21.5094 89.0902C23.5505 92.9909 22.0268 97.7908 18.1402 99.8189C14.2521 101.856 9.45144 100.346 7.41588 96.4558C2.57344 87.1671 0.00709804 76.6823 0 66.1542C0 29.6727 29.9735 0.000228882 66.8265 0.000228882C103.68 0.000228882 133.634 29.6727 133.634 66.1478Z" fill="#F2F2F2"/>
<path d="M3.84766 331.992V388.661C3.84766 391.965 5.85246 394.793 8.71139 395.996C9.69408 396.428 10.773 396.677 11.911 396.677H121.823C126.216 396.677 129.771 393.12 129.771 388.723C129.771 384.326 126.216 380.77 121.823 380.77H19.7425V331.992C19.7425 318.657 30.5789 307.804 43.9106 307.804C57.2423 307.804 68.0818 318.657 68.0818 331.992V359.845C68.0818 364.242 71.6364 367.799 76.0285 367.799C80.4206 367.799 83.9751 364.242 83.9751 359.845V331.992C83.9751 309.888 66.0005 291.896 43.9106 291.896C21.8207 291.896 3.84766 309.888 3.84766 331.992Z" fill="#F2F2F2"/>
<path d="M66.1191 164.714V196.932C66.1191 201.322 69.6729 204.887 74.0666 204.887C78.4603 204.887 82.0109 201.322 82.0109 196.932V172.671H122.16C126.55 172.671 130.108 169.113 130.108 164.715C130.108 160.316 126.55 156.76 122.16 156.76H74.0666C69.6729 156.76 66.1191 160.327 66.1191 164.715" fill="#F2F2F2"/>
<path d="M134.001 204.063C134.001 240.54 104.026 270.208 67.1724 270.208C30.3186 270.208 0.363281 240.54 0.363281 204.063C0.363281 189.702 4.94073 176.037 13.6082 164.542C16.2495 161.041 21.2378 160.35 24.7364 162.986C28.2373 165.631 28.9408 170.617 26.2909 174.129C19.7267 182.842 16.255 193.19 16.255 204.062C16.255 231.761 39.0989 254.304 67.1724 254.304C95.246 254.304 118.11 231.761 118.11 204.062C118.11 200.559 117.737 197.025 116.999 193.577C116.043 189.257 118.812 185.049 123.107 184.131C127.399 183.214 131.617 185.948 132.537 190.253C133.51 194.787 134.001 199.441 134.001 204.062" fill="#F2F2F2"/>
<path d="M129.761 483.461C129.761 487.854 126.205 491.414 121.814 491.414H74.3548C69.9674 491.414 66.4121 487.854 66.4121 483.461C66.4121 479.069 69.9674 475.505 74.3548 475.505H121.814C126.205 475.505 129.761 479.068 129.761 483.461Z" fill="#F2F2F2"/>
<path d="M53.7485 466.844C53.7485 469.123 52.7713 471.387 50.8887 472.958C47.5093 475.772 42.506 475.308 39.6959 471.934L5.80433 431.164C2.99508 427.791 3.44936 422.778 6.83039 419.968C10.2028 417.154 15.2077 417.615 18.013 420.992L51.9124 461.758C53.1443 463.246 53.7485 465.048 53.7485 466.844Z" fill="#F2F2F2"/>
<path d="M53.7476 499.255C53.7476 501.05 53.1435 502.851 51.9116 504.338L18.0121 545.133C15.2147 548.508 10.2011 548.97 6.82952 546.162C3.45716 543.355 2.99421 538.336 5.80346 534.959L39.695 494.164C42.4972 490.791 47.5084 490.326 50.8879 493.134C52.7704 494.709 53.7476 496.975 53.7476 499.255Z" fill="#F2F2F2"/>
</svg>
