<svg width="84" height="22" viewBox="0 0 84 22" fill="none" xmlns="http://www.w3.org/2000/svg">
<g id="Group 2">
<path id="Vector" d="M38.0543 20.8723C37.7423 20.8723 37.4301 20.7509 37.1923 20.5075L33.519 16.7533C33.0442 16.2671 33.0442 15.4776 33.5207 14.993C33.9968 14.5062 34.7682 14.5062 35.2443 14.993L38.9174 18.7466C39.3923 19.2332 39.3923 20.0228 38.916 20.5075C38.6777 20.7509 38.3662 20.8723 38.0543 20.8723" fill="#121212"/>
<g id="Group 1">
<path id="Vector_2" d="M73.8603 21.4427C68.2715 21.4427 63.7236 16.7464 63.7236 10.9728C63.7236 9.03146 64.2412 7.13609 65.2214 5.4915C65.5712 4.90317 66.3204 4.71716 66.8976 5.07423C67.4715 5.43217 67.6552 6.19835 67.3051 6.78557C66.557 8.0407 66.1621 9.48754 66.1621 10.9728C66.1621 15.372 69.6145 18.9523 73.8603 18.9523C78.1061 18.9523 81.5616 15.372 81.5616 10.9728C81.5616 6.5736 78.1058 2.99037 73.8603 2.99037C72.6197 2.99148 71.4365 3.28713 70.3436 3.87088C69.7456 4.19075 69.0099 3.95196 68.699 3.34287C68.3868 2.73354 68.6182 1.9812 69.2145 1.66219C70.6383 0.9033 72.2455 0.501112 73.8593 0.5C79.4514 0.5 83.9997 5.19733 83.9997 10.9728C83.9997 16.7483 79.4514 21.4427 73.8603 21.4427Z" fill="#121212"/>
<path id="Vector_3" d="M33.1105 1.10278L24.4239 1.10278C23.9175 1.10278 23.484 1.41697 23.2996 1.86501C23.2334 2.01901 23.1953 2.1881 23.1953 2.36645V19.5915C23.1953 20.2798 23.7405 20.837 24.4145 20.837C25.0885 20.837 25.6336 20.2798 25.6336 19.5915V3.59377L33.1105 3.59377C35.1545 3.59377 36.8182 5.29201 36.8182 7.3813C36.8182 9.4706 35.1545 11.1693 33.1105 11.1693H28.8411C28.1671 11.1693 27.6218 11.7264 27.6218 12.4147C27.6218 13.103 28.1671 13.6601 28.8411 13.6601H33.1105C36.4987 13.6601 39.2565 10.8432 39.2565 7.3813C39.2565 3.91945 36.4987 1.10278 33.1105 1.10278" fill="#121212"/>
<path id="Vector_4" d="M58.7517 10.8618H53.8131C53.1402 10.8618 52.5938 11.4187 52.5938 12.1073C52.5938 12.7959 53.1402 13.3523 53.8131 13.3523H57.532V19.6443C57.532 20.3322 58.0773 20.8899 58.7515 20.8899C59.4258 20.8899 59.9708 20.3322 59.9708 19.6443V12.1073C59.9708 11.4187 59.4241 10.8618 58.7515 10.8618" fill="#121212"/>
<path id="Vector_5" d="M52.7201 21.5C47.1288 21.5 42.5811 16.8026 42.5811 11.027C42.5811 5.25138 47.1287 0.556885 52.7201 0.556885C54.9214 0.556885 57.016 1.27425 58.7781 2.63259C59.3147 3.04651 59.4206 3.82827 59.0166 4.37655C58.6112 4.9252 57.8469 5.03545 57.3085 4.62016C55.9729 3.59146 54.3868 3.04738 52.7202 3.04738C48.4744 3.04738 45.0189 6.62739 45.0189 11.027C45.0189 15.4266 48.4744 19.0098 52.7202 19.0098C53.2572 19.0098 53.7989 18.9512 54.3274 18.8356C54.9897 18.6858 55.6347 19.1198 55.7753 19.7928C55.9159 20.4654 55.4968 21.1265 54.837 21.2706C54.1419 21.4232 53.4285 21.5 52.7202 21.5" fill="#121212"/>
<path id="Vector_6" d="M9.8929 20.8358C9.21959 20.8358 8.67383 20.2786 8.67383 19.5905V12.1528C8.67383 11.4653 9.21959 10.9081 9.8929 10.9081C10.5662 10.9081 11.1124 11.4653 11.1124 12.1528V19.5905C11.1124 20.2786 10.5663 20.8358 9.8929 20.8358Z" fill="#121212"/>
<path id="Vector_7" d="M12.4402 8.92331C12.0908 8.92331 11.7439 8.77017 11.5031 8.47515C11.0717 7.94553 11.1428 7.16142 11.66 6.72105L17.9094 1.40968C18.4265 0.969423 19.1948 1.04061 19.6256 1.57048C20.0569 2.09898 19.9862 2.88333 19.4687 3.32297L13.2198 8.63557C12.9918 8.82863 12.7155 8.92331 12.4402 8.92331" fill="#121212"/>
<path id="Vector_8" d="M7.47184 8.92336C7.19666 8.92336 6.92064 8.82868 6.69277 8.63562L0.439511 3.32302C-0.0779332 2.88462 -0.148725 2.09891 0.281712 1.57052C0.712029 1.04202 1.48142 0.969468 1.99898 1.40972L8.25224 6.72109C8.76933 7.16023 8.84048 7.94558 8.41004 8.47519C8.16875 8.77022 7.82132 8.92336 7.47184 8.92336" fill="#121212"/>
</g>
</g>
</svg>
