<svg width="131" height="32" viewBox="0 0 131 32" fill="none" xmlns="http://www.w3.org/2000/svg">
<g id="Group 2">
<path id="Vector" d="M59.2269 31.0435C58.7414 31.0435 58.2555 30.8586 57.8854 30.4877L52.1683 24.7669C51.4293 24.0262 51.4293 22.8231 52.171 22.0846C52.9119 21.3429 54.1126 21.3429 54.8535 22.0846L60.5703 27.8045C61.3094 28.5459 61.3094 29.7491 60.5681 30.4877C60.1972 30.8586 59.7125 31.0435 59.2269 31.0435Z" fill="#E51336"/>
<g id="Group 1">
<path id="Vector_2" d="M114.955 31.9126C106.257 31.9126 99.1786 24.7565 99.1786 15.9586C99.1786 13.0003 99.9841 10.1121 101.51 7.60609C102.054 6.70959 103.22 6.42614 104.119 6.97026C105.012 7.51569 105.298 8.6832 104.753 9.578C103.588 11.4906 102.974 13.6953 102.974 15.9586C102.974 22.6621 108.347 28.1178 114.955 28.1178C121.563 28.1178 126.941 22.6621 126.941 15.9586C126.941 9.255 121.563 3.79485 114.955 3.79485C113.024 3.79655 111.183 4.24706 109.482 5.13658C108.551 5.62401 107.406 5.26013 106.922 4.332C106.436 3.40348 106.796 2.25706 107.724 1.77096C109.94 0.614552 112.442 0.00169506 114.954 0C123.657 0 130.736 7.15784 130.736 15.9586C130.736 24.7593 123.657 31.9126 114.955 31.9126Z" fill="#E51336"/>
<path id="Vector_3" d="M51.5329 0.918457H38.0133C37.2251 0.918457 36.5505 1.39722 36.2634 2.07995C36.1604 2.31462 36.1011 2.57227 36.1011 2.84404V29.0918C36.1011 30.1406 36.9495 30.9897 37.9986 30.9897C39.0476 30.9897 39.8959 30.1406 39.8959 29.0918V4.71425H51.5329C54.7141 4.71425 57.3034 7.30204 57.3034 10.4857C57.3034 13.6694 54.7141 16.258 51.5329 16.258H44.8881C43.839 16.258 42.9903 17.1068 42.9903 18.1557C42.9903 19.2045 43.839 20.0534 44.8881 20.0534H51.5329C56.8062 20.0534 61.0984 15.7609 61.0984 10.4857C61.0984 5.21053 56.8062 0.918457 51.5329 0.918457Z" fill="#E51336"/>
<path id="Vector_4" d="M91.4401 15.7896H83.7538C82.7066 15.7896 81.8561 16.6382 81.8561 17.6874C81.8561 18.7367 82.7066 19.5846 83.7538 19.5846H89.5418V29.1724C89.5418 30.2207 90.3905 31.0705 91.4399 31.0705C92.4894 31.0705 93.3376 30.2207 93.3376 29.1724V17.6874C93.3376 16.6382 92.4867 15.7896 91.4399 15.7896" fill="#E51336"/>
<path id="Vector_5" d="M82.0527 32C73.3504 32 66.2725 24.842 66.2725 16.0411C66.2725 7.24018 73.3503 0.0866699 82.0527 0.0866699C85.4788 0.0866699 88.7387 1.17979 91.4811 3.24964C92.3164 3.88039 92.4812 5.07164 91.8524 5.90711C91.2214 6.74315 90.0319 6.91115 89.1939 6.27833C87.1152 4.71078 84.6467 3.88171 82.0529 3.88171C75.4448 3.88171 70.0667 9.33696 70.0667 16.0411C70.0667 22.7452 75.4448 28.2054 82.0529 28.2054C82.8885 28.2054 83.7317 28.1161 84.5542 27.94C85.585 27.7117 86.5888 28.373 86.8077 29.3985C87.0265 30.4235 86.3743 31.4309 85.3473 31.6505C84.2655 31.8829 83.1552 32 82.0529 32" fill="#E51336"/>
<path id="Vector_6" d="M15.397 30.9879C14.349 30.9879 13.4996 30.1388 13.4996 29.0901V17.7566C13.4996 16.7089 14.349 15.8599 15.397 15.8599C16.4449 15.8599 17.2951 16.7089 17.2951 17.7566V29.0901C17.2951 30.1388 16.4451 30.9879 15.397 30.9879Z" fill="#E51336"/>
<path id="Vector_7" d="M19.3613 12.8356C18.8175 12.8356 18.2775 12.6023 17.9028 12.1527C17.2313 11.3457 17.3421 10.1508 18.147 9.47979L27.8734 1.38628C28.6782 0.715415 29.874 0.823899 30.5445 1.63131C31.2157 2.43665 31.1057 3.63185 30.3002 4.30178L20.5745 12.3972C20.2197 12.6914 19.7897 12.8356 19.3613 12.8356Z" fill="#E51336"/>
<path id="Vector_8" d="M11.629 12.8354C11.2007 12.8354 10.7711 12.6912 10.4165 12.397L0.684046 4.30159C-0.121294 3.63355 -0.231472 2.43628 0.438451 1.63112C1.10819 0.825785 2.30565 0.715229 3.11118 1.38609L12.8436 9.47961C13.6484 10.1488 13.7591 11.3455 13.0892 12.1525C12.7137 12.6021 12.1729 12.8354 11.629 12.8354Z" fill="#E51336"/>
</g>
</g>
</svg>
