<svg width="134" height="548" viewBox="0 0 134 548" fill="none" xmlns="http://www.w3.org/2000/svg">
<path d="M129.994 299.741C129.994 301.776 129.22 303.813 127.667 305.364L103.711 329.328C100.609 332.426 95.5711 332.426 92.4787 329.317C89.3729 326.212 89.3729 321.179 92.4787 318.073L116.431 294.11C119.536 291.012 124.574 291.012 127.667 294.119C129.22 295.674 129.994 297.706 129.994 299.741Z" fill="white"/>
<path d="M133.634 66.1478C133.634 102.608 103.668 132.277 66.8265 132.277C54.4388 132.277 42.3446 128.901 31.8505 122.506C28.0964 120.224 26.9095 115.336 29.1879 111.571C31.4719 107.827 36.3609 106.629 40.1079 108.913C48.1169 113.793 57.349 116.369 66.8265 116.369C94.8977 116.369 117.743 93.8466 117.743 66.1478C117.743 38.449 94.8977 15.9062 66.8265 15.9062C38.7553 15.9062 15.8909 38.4506 15.8909 66.1478C15.898 74.2413 17.7845 81.9599 21.5094 89.0902C23.5505 92.9909 22.0268 97.7908 18.1402 99.8189C14.2521 101.856 9.45144 100.346 7.41588 96.4558C2.57344 87.1671 0.00709804 76.6823 0 66.1542C0 29.6727 29.9735 0.000228882 66.8265 0.000228882C103.68 0.000228882 133.634 29.6727 133.634 66.1478Z" fill="white"/>
<path d="M3.84628 331.992V388.661C3.84628 391.965 5.85109 394.793 8.71002 395.996C9.69271 396.428 10.7716 396.677 11.9097 396.677H121.822C126.214 396.677 129.77 393.12 129.77 388.723C129.77 384.326 126.214 380.77 121.822 380.77H19.7412V331.992C19.7412 318.657 30.5775 307.804 43.9092 307.804C57.2409 307.804 68.0804 318.657 68.0804 331.992V359.845C68.0804 364.242 71.635 367.799 76.0271 367.799C80.4192 367.799 83.9737 364.242 83.9737 359.845V331.992C83.9737 309.888 65.9991 291.896 43.9092 291.896C21.8193 291.896 3.84628 309.888 3.84628 331.992Z" fill="white"/>
<path d="M66.1184 164.714V196.932C66.1184 201.322 69.6722 204.887 74.0659 204.887C78.4596 204.887 82.0102 201.322 82.0102 196.932V172.671H122.159C126.549 172.671 130.107 169.113 130.107 164.715C130.107 160.316 126.549 156.76 122.159 156.76H74.0659C69.6722 156.76 66.1184 160.327 66.1184 164.715" fill="white"/>
<path d="M134 204.063C134 240.54 104.026 270.208 67.1719 270.208C30.3181 270.208 0.362732 240.54 0.362732 204.063C0.362732 189.702 4.94018 176.037 13.6077 164.542C16.2489 161.041 21.2373 160.35 24.7358 162.986C28.2368 165.631 28.9402 170.617 26.2903 174.129C19.7262 182.842 16.2545 193.19 16.2545 204.062C16.2545 231.761 39.0983 254.304 67.1719 254.304C95.2454 254.304 118.11 231.761 118.11 204.062C118.11 200.559 117.736 197.025 116.999 193.577C116.043 189.257 118.812 185.049 123.106 184.131C127.398 183.214 131.617 185.948 132.536 190.253C133.509 194.787 134 199.441 134 204.062" fill="white"/>
<path d="M129.762 483.461C129.762 487.854 126.206 491.414 121.815 491.414H74.356C69.9686 491.414 66.4133 487.854 66.4133 483.461C66.4133 479.069 69.9686 475.505 74.356 475.505H121.815C126.206 475.505 129.762 479.068 129.762 483.461Z" fill="white"/>
<path d="M53.7487 466.844C53.7487 469.123 52.7715 471.387 50.8889 472.958C47.5095 475.772 42.5061 475.308 39.6961 471.934L5.80452 431.164C2.99527 427.791 3.44955 422.778 6.83058 419.968C10.2029 417.154 15.2079 417.615 18.0132 420.992L51.9126 461.758C53.1445 463.246 53.7487 465.048 53.7487 466.844Z" fill="white"/>
<path d="M53.7489 499.255C53.7489 501.05 53.1448 502.851 51.9129 504.338L18.0134 545.133C15.216 548.508 10.2024 548.97 6.83084 546.162C3.45848 543.355 2.99553 538.336 5.80478 534.959L39.6964 494.164C42.4985 490.791 47.5097 490.326 50.8892 493.134C52.7718 494.709 53.7489 496.975 53.7489 499.255Z" fill="white"/>
</svg>
